<?xml version="1.0" standalone="no"?>
<!DOCTYPE svg PUBLIC "-//W3C//DTD SVG 20010904//EN"
 "http://www.w3.org/TR/2001/REC-SVG-20010904/DTD/svg10.dtd">
<svg version="1.0" xmlns="http://www.w3.org/2000/svg"
 width="589.000000pt" height="589.000000pt" viewBox="0 0 589.000000 589.000000"
 preserveAspectRatio="xMidYMid meet">
<metadata>
Created by potrace 1.11, written by Peter Selinger 2001-2013
</metadata>
<g transform="translate(0.000000,589.000000) scale(0.100000,-0.100000)"
fill="#000000" stroke="none">
<path d="M2775 5706 c-28 -7 -56 -16 -63 -20 -9 -5 -12 -168 -12 -702 0 -681
0 -694 -20 -714 -24 -24 -49 -25 -76 -6 -18 14 -19 36 -24 664 l-5 649 -109
-19 c-315 -53 -644 -189 -901 -373 -304 -218 -553 -523 -723 -887 -27 -57 -55
-121 -62 -143 -7 -22 -19 -52 -26 -66 -14 -28 -98 -313 -108 -364 -3 -16 -7
-41 -10 -55 -12 -59 -35 -200 -41 -255 -4 -33 -9 -71 -11 -85 -2 -14 -6 -92
-9 -175 -15 -429 -37 -594 -116 -885 -11 -41 -22 -82 -24 -90 -4 -18 -44 -153
-84 -280 -16 -52 -50 -162 -75 -245 -26 -82 -53 -171 -61 -197 -21 -66 -73
-277 -80 -319 -2 -19 -9 -61 -14 -94 -13 -84 -11 -222 3 -292 37 -176 157
-303 351 -371 50 -18 174 -50 200 -53 2 0 19 -5 37 -10 18 -5 53 -12 78 -15
25 -3 52 -7 60 -9 156 -28 427 -54 755 -70 535 -28 2194 -28 2685 0 389 23
565 39 740 70 8 1 35 6 60 10 65 11 67 11 160 33 106 26 213 64 276 99 43 24
139 112 169 154 18 25 45 92 60 149 21 78 14 314 -14 440 -24 109 -77 308 -96
360 -35 94 -191 610 -229 755 -39 147 -69 292 -82 395 -3 25 -7 51 -9 57 -5
14 -11 142 -20 378 -3 83 -7 166 -10 185 -2 19 -6 60 -9 90 -4 30 -8 66 -11
80 -2 14 -6 41 -9 60 -74 470 -267 922 -530 1245 -311 381 -723 637 -1207 749
-36 9 -82 18 -104 21 -22 4 -57 10 -78 15 -27 6 -40 5 -43 -3 -2 -7 -5 -299
-6 -650 -3 -619 -4 -639 -22 -653 -25 -18 -47 -18 -72 0 -18 14 -19 35 -22
715 -2 666 -3 701 -21 710 -33 18 -75 23 -206 26 -79 2 -150 -2 -180 -9z
m-725 -1831 c53 -102 100 -187 210 -380 10 -16 55 -93 100 -170 46 -77 89
-151 97 -165 7 -14 43 -70 78 -125 75 -117 75 -112 -28 -190 -114 -87 -313
-175 -335 -150 -5 6 -34 58 -65 117 -66 125 -173 317 -218 393 -10 17 -28 47
-39 68 -33 60 -250 417 -282 465 l-30 43 39 36 c76 72 295 195 363 205 30 4
31 4 110 -147z m516 -88 c57 -84 152 -263 168 -312 4 -16 -3 -26 -37 -47 -56
-35 -196 -108 -207 -108 -5 0 -41 55 -81 123 -39 67 -80 136 -90 152 -9 17
-31 56 -48 89 l-30 58 112 69 c62 37 121 68 132 69 14 0 37 -26 81 -93z m1647
-61 c149 -35 232 -107 268 -231 14 -51 19 -264 7 -316 -29 -122 -123 -221
-232 -245 -98 -22 -211 -25 -336 -10 -59 8 -222 33 -255 40 -180 39 -274 75
-362 138 -96 70 -124 130 -119 261 4 151 51 229 171 283 61 28 178 59 256 68
31 4 66 9 78 11 12 2 64 7 114 11 51 3 93 7 95 9 10 9 260 -6 315 -19z m-2485
-458 c96 -162 162 -282 162 -294 0 -9 -43 -36 -173 -110 -31 -18 -63 -31 -70
-28 -21 8 -115 157 -185 293 l-64 124 24 19 c12 10 39 26 58 37 19 10 64 35
100 55 36 19 66 35 67 36 1 0 38 -60 81 -132z m1308 -1505 l24 -15 -2 -567 -3
-566 -30 -14 c-38 -19 -132 -19 -170 0 l-30 14 -3 566 c-2 446 1 569 10 577
38 31 160 34 204 5z m-487 -236 l26 -12 0 -450 0 -450 -28 -13 c-38 -19 -135
-19 -172 -1 l-30 14 -3 446 c-3 500 -7 467 71 479 52 8 102 4 136 -13z m968
-4 l23 -15 -2 -447 -3 -446 -28 -13 c-38 -19 -135 -19 -172 -1 l-30 14 -3 446
c-2 349 1 449 10 457 38 31 161 34 205 5z m-1447 -296 l25 -12 0 -300 0 -300
-30 -14 c-38 -19 -132 -19 -170 0 l-30 14 -3 296 c-2 229 1 299 10 307 36 29
145 34 198 9z m1920 0 l25 -12 0 -300 0 -300 -30 -14 c-38 -19 -132 -19 -170
0 l-30 14 -3 296 c-2 229 1 299 10 307 36 29 145 34 198 9z"/>
</g>
</svg>
